<mxfile host="app.diagrams.net" modified="2023-09-02T23:52:50.424Z" agent="Mozilla/5.0 (Macintosh; Intel Mac OS X 10_15_7) AppleWebKit/537.36 (KHTML, like Gecko) Chrome/116.0.0.0 Safari/537.36" etag="ZUs8do_3qM1vTm5hJwK0" version="21.7.2" type="github" pages="2">
  <diagram id="u-hTeyGcg6nhuTRCd-0H" name="Current Search Architecture">
    <mxGraphModel dx="1026" dy="641" grid="1" gridSize="10" guides="1" tooltips="1" connect="1" arrows="1" fold="1" page="1" pageScale="1" pageWidth="850" pageHeight="1100" math="0" shadow="0">
      <root>
        <mxCell id="0" />
        <mxCell id="1" parent="0" />
        <mxCell id="nhYHk4QwkUmq-nLJFXYe-17" value="" style="verticalLabelPosition=bottom;verticalAlign=top;html=1;shape=mxgraph.basic.rect;fillColor2=none;strokeWidth=1;size=20;indent=5;fillColor=#f8cecc;strokeColor=#b85450;" vertex="1" parent="1">
          <mxGeometry x="146.5" y="490" width="253.5" height="108" as="geometry" />
        </mxCell>
        <mxCell id="nhYHk4QwkUmq-nLJFXYe-1" value="" style="verticalLabelPosition=bottom;verticalAlign=top;html=1;shape=mxgraph.basic.rect;fillColor2=none;strokeWidth=1;size=20;indent=5;fillColor=#f8cecc;strokeColor=#b85450;" vertex="1" parent="1">
          <mxGeometry x="80" y="120" width="390" height="260" as="geometry" />
        </mxCell>
        <mxCell id="nhYHk4QwkUmq-nLJFXYe-2" value="Users" style="ellipse;whiteSpace=wrap;html=1;strokeWidth=2;fillColor=#f8cecc;strokeColor=#b85450;" vertex="1" parent="1">
          <mxGeometry x="241" y="40" width="70" height="50" as="geometry" />
        </mxCell>
        <mxCell id="nhYHk4QwkUmq-nLJFXYe-3" value="grpc-gateway&lt;br&gt;(port 8080)" style="whiteSpace=wrap;html=1;aspect=fixed;fillColor=#f8cecc;strokeColor=#b85450;strokeWidth=2;" vertex="1" parent="1">
          <mxGeometry x="231" y="150" width="90" height="90" as="geometry" />
        </mxCell>
        <mxCell id="nhYHk4QwkUmq-nLJFXYe-4" value="Topic Service" style="rounded=1;whiteSpace=wrap;html=1;fillColor=#f8cecc;strokeColor=#b85450;strokeWidth=2;" vertex="1" parent="1">
          <mxGeometry x="118" y="290" width="120" height="60" as="geometry" />
        </mxCell>
        <mxCell id="nhYHk4QwkUmq-nLJFXYe-5" value="Message Service" style="rounded=1;whiteSpace=wrap;html=1;fillColor=#f8cecc;strokeColor=#b85450;strokeWidth=2;" vertex="1" parent="1">
          <mxGeometry x="300" y="290" width="120" height="60" as="geometry" />
        </mxCell>
        <mxCell id="nhYHk4QwkUmq-nLJFXYe-6" value="" style="endArrow=classic;html=1;rounded=0;exitX=0.5;exitY=1;exitDx=0;exitDy=0;entryX=0.5;entryY=0;entryDx=0;entryDy=0;strokeColor=#A62828;strokeWidth=2;fillColor=#e1d5e7;" edge="1" parent="1" source="nhYHk4QwkUmq-nLJFXYe-3" target="nhYHk4QwkUmq-nLJFXYe-4">
          <mxGeometry width="50" height="50" relative="1" as="geometry">
            <mxPoint x="400" y="270" as="sourcePoint" />
            <mxPoint x="450" y="220" as="targetPoint" />
          </mxGeometry>
        </mxCell>
        <mxCell id="nhYHk4QwkUmq-nLJFXYe-7" value="" style="endArrow=classic;html=1;rounded=0;exitX=0.5;exitY=1;exitDx=0;exitDy=0;entryX=0.5;entryY=0;entryDx=0;entryDy=0;strokeColor=#A62828;strokeWidth=2;fillColor=#e1d5e7;" edge="1" parent="1" source="nhYHk4QwkUmq-nLJFXYe-3" target="nhYHk4QwkUmq-nLJFXYe-5">
          <mxGeometry width="50" height="50" relative="1" as="geometry">
            <mxPoint x="285" y="250" as="sourcePoint" />
            <mxPoint x="180" y="300" as="targetPoint" />
          </mxGeometry>
        </mxCell>
        <mxCell id="nhYHk4QwkUmq-nLJFXYe-8" value="" style="endArrow=classic;html=1;rounded=0;exitX=0.5;exitY=1;exitDx=0;exitDy=0;strokeColor=#A62828;strokeWidth=2;fillColor=#e1d5e7;entryX=0.5;entryY=0;entryDx=0;entryDy=0;" edge="1" parent="1" source="nhYHk4QwkUmq-nLJFXYe-5" target="nhYHk4QwkUmq-nLJFXYe-13">
          <mxGeometry width="50" height="50" relative="1" as="geometry">
            <mxPoint x="10" y="450" as="sourcePoint" />
            <mxPoint x="270" y="400" as="targetPoint" />
          </mxGeometry>
        </mxCell>
        <mxCell id="nhYHk4QwkUmq-nLJFXYe-9" value="" style="endArrow=classic;html=1;rounded=0;exitX=0.5;exitY=1;exitDx=0;exitDy=0;strokeColor=#A62828;strokeWidth=2;fillColor=#e1d5e7;entryX=0.5;entryY=0;entryDx=0;entryDy=0;" edge="1" parent="1" source="nhYHk4QwkUmq-nLJFXYe-4" target="nhYHk4QwkUmq-nLJFXYe-13">
          <mxGeometry width="50" height="50" relative="1" as="geometry">
            <mxPoint x="70" y="430" as="sourcePoint" />
            <mxPoint x="270" y="400" as="targetPoint" />
          </mxGeometry>
        </mxCell>
        <mxCell id="nhYHk4QwkUmq-nLJFXYe-10" value="/v1/topics" style="text;html=1;align=center;verticalAlign=middle;resizable=0;points=[];autosize=1;strokeColor=#A62828;fillColor=#e1d5e7;strokeWidth=0;" vertex="1" parent="1">
          <mxGeometry x="136" y="242" width="70" height="30" as="geometry" />
        </mxCell>
        <mxCell id="nhYHk4QwkUmq-nLJFXYe-11" value="/v1/messages" style="text;html=1;align=center;verticalAlign=middle;resizable=0;points=[];autosize=1;strokeColor=#A62828;fillColor=#e1d5e7;strokeWidth=0;" vertex="1" parent="1">
          <mxGeometry x="336" y="243" width="100" height="30" as="geometry" />
        </mxCell>
        <mxCell id="nhYHk4QwkUmq-nLJFXYe-12" value="" style="endArrow=classic;html=1;rounded=0;exitX=0.5;exitY=1;exitDx=0;exitDy=0;entryX=0.5;entryY=0;entryDx=0;entryDy=0;strokeColor=#A62828;strokeWidth=2;fillColor=#e1d5e7;" edge="1" parent="1" source="nhYHk4QwkUmq-nLJFXYe-2" target="nhYHk4QwkUmq-nLJFXYe-3">
          <mxGeometry width="50" height="50" relative="1" as="geometry">
            <mxPoint x="-80" y="280" as="sourcePoint" />
            <mxPoint x="275" y="112" as="targetPoint" />
          </mxGeometry>
        </mxCell>
        <mxCell id="nhYHk4QwkUmq-nLJFXYe-13" value="Datastore&lt;br&gt;(Postgres)" style="shape=datastore;whiteSpace=wrap;html=1;fillColor=#f8cecc;strokeColor=#b85450;" vertex="1" parent="1">
          <mxGeometry x="215" y="410" width="115" height="100" as="geometry" />
        </mxCell>
        <mxCell id="nhYHk4QwkUmq-nLJFXYe-14" value="OneHub Service" style="text;html=1;align=center;verticalAlign=middle;resizable=0;points=[];autosize=1;strokeColor=none;fillColor=none;" vertex="1" parent="1">
          <mxGeometry x="360" y="120" width="110" height="30" as="geometry" />
        </mxCell>
        <mxCell id="nhYHk4QwkUmq-nLJFXYe-15" value="Index1" style="shape=datastore;whiteSpace=wrap;html=1;fillColor=#f8cecc;strokeColor=#b85450;" vertex="1" parent="1">
          <mxGeometry x="161" y="520" width="69" height="50" as="geometry" />
        </mxCell>
        <mxCell id="nhYHk4QwkUmq-nLJFXYe-19" value="Index2" style="shape=datastore;whiteSpace=wrap;html=1;fillColor=#f8cecc;strokeColor=#b85450;" vertex="1" parent="1">
          <mxGeometry x="242" y="520" width="69" height="50" as="geometry" />
        </mxCell>
        <mxCell id="nhYHk4QwkUmq-nLJFXYe-20" value="IndexN" style="shape=datastore;whiteSpace=wrap;html=1;fillColor=#f8cecc;strokeColor=#b85450;" vertex="1" parent="1">
          <mxGeometry x="322" y="520" width="69" height="50" as="geometry" />
        </mxCell>
        <mxCell id="nhYHk4QwkUmq-nLJFXYe-21" value="DB Indexes" style="text;html=1;align=center;verticalAlign=middle;resizable=0;points=[];autosize=1;strokeColor=none;fillColor=none;" vertex="1" parent="1">
          <mxGeometry x="230" y="570" width="90" height="30" as="geometry" />
        </mxCell>
      </root>
    </mxGraphModel>
  </diagram>
  <diagram name="New Architecture" id="yNTU8KE3XLUba8caBVKO">
    <mxGraphModel dx="1026" dy="1741" grid="1" gridSize="10" guides="1" tooltips="1" connect="1" arrows="1" fold="1" page="1" pageScale="1" pageWidth="850" pageHeight="1100" math="0" shadow="0">
      <root>
        <mxCell id="0z7UrHsTXnvzhj-5PGaQ-0" />
        <mxCell id="0z7UrHsTXnvzhj-5PGaQ-1" parent="0z7UrHsTXnvzhj-5PGaQ-0" />
        <mxCell id="STCWvVoYdhdJVvicM64R-0" value="" style="verticalLabelPosition=bottom;verticalAlign=top;html=1;shape=mxgraph.basic.rect;fillColor2=none;strokeWidth=1;size=20;indent=5;fillColor=#f8cecc;strokeColor=#b85450;" vertex="1" parent="0z7UrHsTXnvzhj-5PGaQ-1">
          <mxGeometry x="520" y="120" width="253.5" height="140" as="geometry" />
        </mxCell>
        <mxCell id="STCWvVoYdhdJVvicM64R-1" value="" style="verticalLabelPosition=bottom;verticalAlign=top;html=1;shape=mxgraph.basic.rect;fillColor2=none;strokeWidth=1;size=20;indent=5;fillColor=#f8cecc;strokeColor=#b85450;" vertex="1" parent="0z7UrHsTXnvzhj-5PGaQ-1">
          <mxGeometry x="80" y="120" width="300" height="140" as="geometry" />
        </mxCell>
        <mxCell id="STCWvVoYdhdJVvicM64R-2" value="Users" style="ellipse;whiteSpace=wrap;html=1;strokeWidth=2;fillColor=#f8cecc;strokeColor=#b85450;" vertex="1" parent="0z7UrHsTXnvzhj-5PGaQ-1">
          <mxGeometry x="420" y="-40" width="70" height="50" as="geometry" />
        </mxCell>
        <mxCell id="STCWvVoYdhdJVvicM64R-4" value="Topic Service" style="rounded=1;whiteSpace=wrap;html=1;fillColor=#f8cecc;strokeColor=#b85450;strokeWidth=2;" vertex="1" parent="0z7UrHsTXnvzhj-5PGaQ-1">
          <mxGeometry x="90" y="210" width="120" height="30" as="geometry" />
        </mxCell>
        <mxCell id="STCWvVoYdhdJVvicM64R-5" value="Message Service" style="rounded=1;whiteSpace=wrap;html=1;fillColor=#f8cecc;strokeColor=#b85450;strokeWidth=2;" vertex="1" parent="0z7UrHsTXnvzhj-5PGaQ-1">
          <mxGeometry x="240" y="210" width="120" height="30" as="geometry" />
        </mxCell>
        <mxCell id="STCWvVoYdhdJVvicM64R-8" value="" style="endArrow=classic;html=1;rounded=0;exitX=0.5;exitY=1;exitDx=0;exitDy=0;strokeColor=#A62828;strokeWidth=2;fillColor=#e1d5e7;entryX=0.5;entryY=0;entryDx=0;entryDy=0;" edge="1" parent="0z7UrHsTXnvzhj-5PGaQ-1" source="STCWvVoYdhdJVvicM64R-5" target="STCWvVoYdhdJVvicM64R-13">
          <mxGeometry width="50" height="50" relative="1" as="geometry">
            <mxPoint x="-35" y="450" as="sourcePoint" />
            <mxPoint x="225" y="400" as="targetPoint" />
          </mxGeometry>
        </mxCell>
        <mxCell id="STCWvVoYdhdJVvicM64R-9" value="" style="endArrow=classic;html=1;rounded=0;exitX=0.5;exitY=1;exitDx=0;exitDy=0;strokeColor=#A62828;strokeWidth=2;fillColor=#e1d5e7;entryX=0.5;entryY=0;entryDx=0;entryDy=0;" edge="1" parent="0z7UrHsTXnvzhj-5PGaQ-1" source="STCWvVoYdhdJVvicM64R-4" target="STCWvVoYdhdJVvicM64R-13">
          <mxGeometry width="50" height="50" relative="1" as="geometry">
            <mxPoint x="25" y="430" as="sourcePoint" />
            <mxPoint x="225" y="400" as="targetPoint" />
          </mxGeometry>
        </mxCell>
        <mxCell id="STCWvVoYdhdJVvicM64R-12" value="" style="endArrow=classic;html=1;rounded=0;exitX=0.5;exitY=1;exitDx=0;exitDy=0;entryX=0.49;entryY=-0.004;entryDx=0;entryDy=0;strokeColor=#A62828;strokeWidth=2;fillColor=#e1d5e7;entryPerimeter=0;" edge="1" parent="0z7UrHsTXnvzhj-5PGaQ-1" source="STCWvVoYdhdJVvicM64R-2" target="STCWvVoYdhdJVvicM64R-1">
          <mxGeometry width="50" height="50" relative="1" as="geometry">
            <mxPoint x="-125" y="280" as="sourcePoint" />
            <mxPoint x="231" y="150" as="targetPoint" />
          </mxGeometry>
        </mxCell>
        <mxCell id="STCWvVoYdhdJVvicM64R-13" value="Datastore&lt;br&gt;(Postgres)" style="shape=datastore;whiteSpace=wrap;html=1;fillColor=#f8cecc;strokeColor=#b85450;" vertex="1" parent="0z7UrHsTXnvzhj-5PGaQ-1">
          <mxGeometry x="170" y="300" width="115" height="100" as="geometry" />
        </mxCell>
        <mxCell id="STCWvVoYdhdJVvicM64R-14" value="OneHub&lt;br&gt;Service" style="text;html=1;align=center;verticalAlign=middle;resizable=0;points=[];autosize=1;strokeColor=none;fillColor=none;" vertex="1" parent="0z7UrHsTXnvzhj-5PGaQ-1">
          <mxGeometry x="310" y="120" width="70" height="40" as="geometry" />
        </mxCell>
        <mxCell id="STCWvVoYdhdJVvicM64R-15" value="Index1" style="shape=datastore;whiteSpace=wrap;html=1;fillColor=#f8cecc;strokeColor=#b85450;" vertex="1" parent="0z7UrHsTXnvzhj-5PGaQ-1">
          <mxGeometry x="534.5" y="176" width="69" height="50" as="geometry" />
        </mxCell>
        <mxCell id="STCWvVoYdhdJVvicM64R-16" value="Index2" style="shape=datastore;whiteSpace=wrap;html=1;fillColor=#f8cecc;strokeColor=#b85450;" vertex="1" parent="0z7UrHsTXnvzhj-5PGaQ-1">
          <mxGeometry x="615.5" y="176" width="69" height="50" as="geometry" />
        </mxCell>
        <mxCell id="STCWvVoYdhdJVvicM64R-17" value="IndexN" style="shape=datastore;whiteSpace=wrap;html=1;fillColor=#f8cecc;strokeColor=#b85450;" vertex="1" parent="0z7UrHsTXnvzhj-5PGaQ-1">
          <mxGeometry x="695.5" y="176" width="69" height="50" as="geometry" />
        </mxCell>
        <mxCell id="STCWvVoYdhdJVvicM64R-18" value="Search Indexes" style="text;html=1;align=center;verticalAlign=middle;resizable=0;points=[];autosize=1;strokeColor=none;fillColor=none;" vertex="1" parent="0z7UrHsTXnvzhj-5PGaQ-1">
          <mxGeometry x="595" y="230" width="110" height="30" as="geometry" />
        </mxCell>
        <mxCell id="STCWvVoYdhdJVvicM64R-19" value="CRUD&lt;br&gt;Queries" style="text;html=1;align=center;verticalAlign=middle;resizable=0;points=[];autosize=1;strokeColor=#A62828;fillColor=#e1d5e7;strokeWidth=0;" vertex="1" parent="0z7UrHsTXnvzhj-5PGaQ-1">
          <mxGeometry x="100" y="75" width="70" height="40" as="geometry" />
        </mxCell>
        <mxCell id="STCWvVoYdhdJVvicM64R-20" value="" style="endArrow=classic;html=1;rounded=0;exitX=0.5;exitY=1;exitDx=0;exitDy=0;strokeColor=#A62828;strokeWidth=2;fillColor=#e1d5e7;entryX=0.576;entryY=0;entryDx=0;entryDy=0;entryPerimeter=0;" edge="1" parent="0z7UrHsTXnvzhj-5PGaQ-1" source="STCWvVoYdhdJVvicM64R-2" target="STCWvVoYdhdJVvicM64R-0">
          <mxGeometry width="50" height="50" relative="1" as="geometry">
            <mxPoint x="465" y="20" as="sourcePoint" />
            <mxPoint x="660" y="60" as="targetPoint" />
          </mxGeometry>
        </mxCell>
        <mxCell id="STCWvVoYdhdJVvicM64R-21" value="Search&lt;br&gt;Queries" style="text;html=1;align=center;verticalAlign=middle;resizable=0;points=[];autosize=1;strokeColor=#A62828;fillColor=#e1d5e7;strokeWidth=0;" vertex="1" parent="0z7UrHsTXnvzhj-5PGaQ-1">
          <mxGeometry x="695.5" y="75" width="70" height="40" as="geometry" />
        </mxCell>
        <mxCell id="STCWvVoYdhdJVvicM64R-26" value="grpc-gateway" style="rounded=1;whiteSpace=wrap;html=1;fillColor=#f8cecc;strokeColor=#b85450;strokeWidth=2;" vertex="1" parent="0z7UrHsTXnvzhj-5PGaQ-1">
          <mxGeometry x="167.5" y="140" width="120" height="30" as="geometry" />
        </mxCell>
        <mxCell id="STCWvVoYdhdJVvicM64R-27" value="" style="endArrow=classic;html=1;rounded=0;exitX=0.5;exitY=1;exitDx=0;exitDy=0;entryX=0.5;entryY=0;entryDx=0;entryDy=0;strokeColor=#A62828;strokeWidth=2;fillColor=#e1d5e7;" edge="1" parent="0z7UrHsTXnvzhj-5PGaQ-1" source="STCWvVoYdhdJVvicM64R-26" target="STCWvVoYdhdJVvicM64R-4">
          <mxGeometry width="50" height="50" relative="1" as="geometry">
            <mxPoint x="465" y="20" as="sourcePoint" />
            <mxPoint x="236" y="129" as="targetPoint" />
          </mxGeometry>
        </mxCell>
        <mxCell id="STCWvVoYdhdJVvicM64R-28" value="" style="endArrow=classic;html=1;rounded=0;exitX=0.5;exitY=1;exitDx=0;exitDy=0;entryX=0.5;entryY=0;entryDx=0;entryDy=0;strokeColor=#A62828;strokeWidth=2;fillColor=#e1d5e7;" edge="1" parent="0z7UrHsTXnvzhj-5PGaQ-1" source="STCWvVoYdhdJVvicM64R-26" target="STCWvVoYdhdJVvicM64R-5">
          <mxGeometry width="50" height="50" relative="1" as="geometry">
            <mxPoint x="238" y="180" as="sourcePoint" />
            <mxPoint x="160" y="220" as="targetPoint" />
          </mxGeometry>
        </mxCell>
        <mxCell id="STCWvVoYdhdJVvicM64R-30" value="Search Service" style="rounded=1;whiteSpace=wrap;html=1;fillColor=#f8cecc;strokeColor=#b85450;strokeWidth=2;" vertex="1" parent="0z7UrHsTXnvzhj-5PGaQ-1">
          <mxGeometry x="590" y="130" width="120" height="30" as="geometry" />
        </mxCell>
        <mxCell id="STCWvVoYdhdJVvicM64R-41" value="Sync Service + Queue" style="rounded=1;whiteSpace=wrap;html=1;fillColor=#f8cecc;strokeColor=#b85450;strokeWidth=2;" vertex="1" parent="0z7UrHsTXnvzhj-5PGaQ-1">
          <mxGeometry x="556.75" y="320" width="180" height="70" as="geometry" />
        </mxCell>
        <mxCell id="STCWvVoYdhdJVvicM64R-43" value="" style="html=1;shadow=0;dashed=0;align=center;verticalAlign=middle;shape=mxgraph.arrows2.arrow;dy=0.71;dx=25;notch=0;" vertex="1" parent="0z7UrHsTXnvzhj-5PGaQ-1">
          <mxGeometry x="300" y="330" width="240" height="50" as="geometry" />
        </mxCell>
        <mxCell id="STCWvVoYdhdJVvicM64R-45" value="" style="shape=singleArrow;whiteSpace=wrap;html=1;rotation=15;arrowWidth=0.32822617783189395;arrowSize=0.20610668296988843;" vertex="1" parent="0z7UrHsTXnvzhj-5PGaQ-1">
          <mxGeometry x="391.95" y="262.01" width="158" height="46.25" as="geometry" />
        </mxCell>
        <mxCell id="STCWvVoYdhdJVvicM64R-46" value="" style="html=1;shadow=0;dashed=0;align=center;verticalAlign=middle;shape=mxgraph.arrows2.arrow;dy=0.71;dx=25;notch=0;direction=south;rotation=-180;" vertex="1" parent="0z7UrHsTXnvzhj-5PGaQ-1">
          <mxGeometry x="625" y="265.66" width="50" height="49.67" as="geometry" />
        </mxCell>
        <mxCell id="STCWvVoYdhdJVvicM64R-49" value="1" style="text;html=1;align=center;verticalAlign=middle;resizable=0;points=[];autosize=1;strokeColor=#A62828;fillColor=#e1d5e7;strokeWidth=0;" vertex="1" parent="0z7UrHsTXnvzhj-5PGaQ-1">
          <mxGeometry x="340" y="45" width="30" height="30" as="geometry" />
        </mxCell>
        <mxCell id="STCWvVoYdhdJVvicM64R-51" value="3" style="text;html=1;align=center;verticalAlign=middle;resizable=0;points=[];autosize=1;strokeColor=#A62828;fillColor=#e1d5e7;strokeWidth=0;" vertex="1" parent="0z7UrHsTXnvzhj-5PGaQ-1">
          <mxGeometry x="440" y="265.66" width="30" height="30" as="geometry" />
        </mxCell>
        <mxCell id="STCWvVoYdhdJVvicM64R-52" value="2" style="text;html=1;align=center;verticalAlign=middle;resizable=0;points=[];autosize=1;strokeColor=#A62828;fillColor=#e1d5e7;strokeWidth=0;" vertex="1" parent="0z7UrHsTXnvzhj-5PGaQ-1">
          <mxGeometry x="212" y="256.66" width="30" height="30" as="geometry" />
        </mxCell>
        <mxCell id="STCWvVoYdhdJVvicM64R-53" value="4" style="text;html=1;align=center;verticalAlign=middle;resizable=0;points=[];autosize=1;strokeColor=#A62828;fillColor=#e1d5e7;strokeWidth=0;" vertex="1" parent="0z7UrHsTXnvzhj-5PGaQ-1">
          <mxGeometry x="405" y="340" width="30" height="30" as="geometry" />
        </mxCell>
        <mxCell id="STCWvVoYdhdJVvicM64R-54" value="5" style="text;html=1;align=center;verticalAlign=middle;resizable=0;points=[];autosize=1;strokeColor=#A62828;fillColor=#e1d5e7;strokeWidth=0;" vertex="1" parent="0z7UrHsTXnvzhj-5PGaQ-1">
          <mxGeometry x="680" y="277.2" width="30" height="30" as="geometry" />
        </mxCell>
      </root>
    </mxGraphModel>
  </diagram>
</mxfile>
